<?xml version="1.0"?><svg fill="#000000" xmlns="http://www.w3.org/2000/svg"  viewBox="0 0 128 128" width="100px" height="100px">    <path d="M 52 11 C 50.3 11 49 12.3 49 14 L 49 18 C 49 25.2 54.2 31.299219 61 32.699219 L 61 92 L 46 92 C 44.3 92 43 93.3 43 95 L 43 110 C 43 113.8 43.699609 117.5 45.099609 121 L 18.800781 121 C 17.200781 121 15.800781 122.3 15.800781 124 C 15.800781 125.7 17.100781 127 18.800781 127 L 49.900391 127 L 77.900391 127 L 101.90039 127 C 103.60039 127 104.90039 125.7 104.90039 124 L 104.90039 122.5 C 104.90039 121.1 106.00039 120 107.40039 120 C 108.80039 120 109.90039 121.1 109.90039 122.5 L 109.90039 124 C 109.90039 125.7 111.20039 127 112.90039 127 L 123.80078 127 C 125.50078 127 126.80078 125.7 126.80078 124 C 126.80078 122.3 125.50078 121 123.80078 121 L 115.69922 121 C 114.99922 117 111.50078 114 107.30078 114 C 103.10078 114 99.600391 117 98.900391 121 L 82.900391 121 C 84.300391 117.5 85 113.8 85 110 L 85 95 C 85 93.3 83.7 92 82 92 L 67 92 L 67 32.699219 C 73.8 31.299219 79 25.2 79 18 L 79 14 C 79 12.3 77.7 11 76 11 L 52 11 z M 55 17 L 73 17 L 73 18 C 73 23 69 27 64 27 C 59 27 55 23 55 18 L 55 17 z M 49 98 L 61 98 L 61 105 C 61 106.7 62.3 108 64 108 C 65.7 108 67 106.7 67 105 L 67 98 L 79 98 L 79 110 C 79 113.8 78.100781 117.6 76.300781 121 L 51.699219 121 C 49.899219 117.6 49 113.9 49 110 L 49 98 z M 3.8007812 121.07422 C 3.0257812 121.07422 2.2492188 121.35039 1.6992188 121.90039 C 1.0992187 122.50039 0.80078125 123.2 0.80078125 124 C 0.80078125 124.8 1.0992187 125.59961 1.6992188 126.09961 C 2.2992187 126.69961 3.0007813 127 3.8007812 127 C 4.6007812 127 5.4003906 126.69961 5.9003906 126.09961 C 6.5003906 125.49961 6.8007813 124.8 6.8007812 124 C 6.8007812 123.2 6.5003906 122.40039 5.9003906 121.90039 C 5.3503906 121.35039 4.5757813 121.07422 3.8007812 121.07422 z"/></svg>