<?xml version="1.0" standalone="no"?>
<!DOCTYPE svg PUBLIC "-//W3C//DTD SVG 20010904//EN"
 "http://www.w3.org/TR/2001/REC-SVG-20010904/DTD/svg10.dtd">
<svg version="1.0" xmlns="http://www.w3.org/2000/svg"
 width="505.000000pt" height="403.000000pt" viewBox="0 0 505.000000 403.000000"
 preserveAspectRatio="xMidYMid meet">

<g transform="translate(0.000000,403.000000) scale(0.100000,-0.100000)"
fill="#000000" stroke="none">
<path d="M10 3736 l0 -286 123 0 c196 0 296 36 355 126 74 111 63 266 -26 357
-60 62 -122 79 -299 85 l-153 4 0 -286z m300 142 c58 -30 81 -71 81 -143 0
-107 -66 -165 -188 -165 l-63 0 0 165 0 165 63 0 c45 0 75 -6 107 -22z"/>
<path d="M885 3778 c-55 -133 -108 -261 -117 -285 l-18 -43 74 0 73 0 21 50
21 50 110 0 110 0 22 -50 21 -50 75 0 c66 0 74 2 69 18 -4 9 -55 136 -115 282
l-110 265 -68 3 -68 2 -100 -242z m201 -10 c16 -45 31 -86 32 -90 2 -4 -29 -8
-68 -8 -54 0 -71 3 -67 13 2 6 17 47 33 90 16 42 31 77 35 77 3 0 19 -37 35
-82z"/>
<path d="M1510 3960 l0 -60 80 0 80 0 0 -225 0 -225 70 0 70 0 0 225 0 225 80
0 80 0 0 60 0 60 -230 0 -230 0 0 -60z"/>
<path d="M2265 3778 c-55 -133 -108 -261 -117 -285 l-18 -43 74 0 73 0 21 50
21 50 110 0 110 0 22 -50 21 -50 75 0 c66 0 74 2 69 18 -4 9 -55 136 -115 282
l-110 265 -68 3 -68 2 -100 -242z m201 -10 c16 -45 31 -86 32 -90 2 -4 -29 -8
-68 -8 -54 0 -71 3 -67 13 2 6 17 47 33 90 16 42 31 77 35 77 3 0 19 -37 35
-82z"/>
<path d="M2990 3735 l0 -285 65 0 65 0 0 115 0 115 115 0 115 0 0 -115 0 -115
65 0 65 0 0 285 0 285 -65 0 -65 0 0 -110 0 -110 -115 0 -115 0 0 110 0 110
-65 0 -65 0 0 -285z"/>
<path d="M3820 3735 l0 -285 195 0 195 0 0 60 0 60 -130 0 -130 0 0 50 0 50
120 0 120 0 0 60 0 60 -120 0 -120 0 0 55 0 55 125 0 125 0 0 60 0 60 -190 0
-190 0 0 -285z"/>
<path d="M4520 3735 l0 -285 65 0 65 0 0 187 0 187 113 -184 112 -185 78 -3
77 -3 0 286 0 285 -65 0 -65 0 -2 -182 -3 -181 -110 181 -110 182 -77 0 -78 0
0 -285z"/>
<path d="M3707 3234 c-4 -4 -7 -666 -7 -1471 l0 -1463 -380 0 -380 0 0 965 0
965 -140 0 -140 0 0 -965 0 -965 -455 0 -454 0 20 48 c55 127 62 185 66 540
l5 332 -271 0 -271 0 0 870 0 870 490 0 490 0 0 135 0 135 -1135 0 -1135 0 0
-135 0 -135 490 0 490 0 0 -870 0 -870 -266 0 -266 0 5 -327 c5 -349 11 -401
66 -541 l21 -52 -160 0 -160 0 0 -145 0 -145 2399 0 2399 0 6 273 c4 149 6
875 4 1612 l-3 1340 -140 0 -140 0 -3 -1468 -2 -1467 -380 0 -380 0 -2 1468
-3 1467 -136 3 c-74 1 -138 -1 -142 -4z m-2717 -2434 l0 -170 155 0 155 0 0
170 0 170 160 0 160 0 0 -144 c0 -235 -26 -361 -100 -475 l-32 -51 -339 0
-338 0 -25 33 c-35 46 -81 151 -95 215 -6 29 -11 136 -11 237 l0 185 155 0
155 0 0 -170z"/>
<path d="M2752 3120 c-56 -13 -112 -80 -112 -132 0 -21 -3 -23 -47 -19 -89 7
-154 -55 -155 -147 0 -64 24 -108 70 -130 20 -9 39 -17 41 -19 1 -1 -4 -12
-13 -25 -22 -31 -20 -106 4 -145 51 -85 170 -103 231 -35 l26 29 36 -34 c70
-64 176 -41 226 47 27 48 25 118 -3 149 -16 18 -15 20 21 38 96 50 101 189 10
257 -22 16 -43 21 -88 21 -57 -1 -59 0 -59 25 0 78 -99 142 -188 120z m119
-289 c50 -51 36 -137 -28 -170 -48 -25 -115 -5 -139 40 -40 77 8 159 93 159
36 0 50 -6 74 -29z"/>
</g>
</svg>
